PathFileType	4	(X/Y/Z)	S1_nor_med_right & left.trc
DataRate	CameraRate	NumFrames	NumMarkers	Units	OrigDataRate	OrigDataStartFrame	OrigNumFrames
250.00	250.00	6	18	mm	250.00	2100	16793
Frame#	Time	c7	r_should	l_should	clavicle	r_upa	r_elb_l	r_elb_m	r_low	r_wri_l	r_wri_m	r_met	l_upa	l_elb_l	l_elb_m	l_low	l_wri_l	l_wri_m	l_met
	X1	Y1	Z1	X2	Y2	Z2	X3	Y3	Z3	X4	Y4	Z4	X5	Y5	Z5	X6	Y6	Z6	X7	Y7	Z7	X8	Y8	Z8	X9	Y9	Z9	X10	Y10	Z10	X11	Y11	Z11	X12	Y12	Z12	X13	Y13	Z13	X14	Y14	Z14	X15	Y15	Z15	X16	Y16	Z16	X17	Y17	Z17	X18	Y18	Z18
2100	8.39600	897.31049	1421.81519	135.30467	969.48505	1344.12195	305.21960	936.50269	1364.58386	-64.10756	1026.11084	1294.17456	109.49018	971.64832	1138.47351	353.89545	987.31244	1088.82764	358.75815	966.22253	1027.25684	273.05917	1089.12769	1067.28345	303.83224	1146.24475	1158.26050	307.52475	1142.10278	1133.65100	236.97107	1224.78455	1176.02991	309.37726	930.36713	1141.21228	-104.47882	937.27484	1055.19031	-117.03574	873.01788	1032.39905	-38.06128	885.75586	915.01385	-129.04579	957.01172	820.55463	-110.47221	885.97485	813.04730	-127.03620	971.74554	742.77240	-131.70769
2101	8.40000	897.32001	1421.80127	135.40076	969.51495	1344.09314	305.24084	936.45361	1364.60522	-64.04455	1026.11902	1294.19104	109.50922	971.99902	1138.48621	353.83606	987.64941	1088.95776	358.65231	966.65332	1027.26978	272.86340	1089.34766	1068.16858	303.42465	1145.51306	1159.80200	307.36124	1141.68958	1135.05981	236.65569	1224.23022	1177.85669	309.04437	930.31110	1141.24988	-104.46775	937.23175	1055.22864	-117.04559	873.01135	1032.40576	-38.04256	885.74432	915.04218	-129.05382	957.02124	820.59991	-110.52692	885.98376	813.07416	-127.05653	971.76312	742.83044	-131.77940
2102	8.40400	897.32806	1421.78442	135.49683	969.54626	1344.05493	305.27884	936.40015	1364.62097	-63.97670	1026.12317	1294.19360	109.52434	972.35254	1138.50244	353.79160	987.97717	1089.08423	358.57379	967.16724	1027.28357	272.63324	1089.55371	1069.02380	303.07959	1144.58777	1161.56836	307.51474	1141.27039	1136.45593	236.33269	1223.61926	1179.66296	308.72675	930.25647	1141.28210	-104.45816	937.17932	1055.27405	-117.06322	872.99799	1032.42395	-38.02654	885.72943	915.06659	-129.05675	957.03448	820.64130	-110.57752	885.99011	813.10620	-127.07774	971.77747	742.89630	-131.85384
2103	8.40800	897.33441	1421.76831	135.58382	969.57928	1344.01807	305.31293	936.34253	1364.64404	-63.91126	1026.12988	1294.19067	109.54523	972.71777	1138.52405	353.73422	988.29419	1089.19641	358.48169	967.69250	1027.31323	272.41428	1089.75244	1069.87012	302.74670	1144.26770	1162.94031	307.23999	1140.82556	1137.83887	236.01198	1223.03748	1181.46826	308.35205	930.20642	1141.31372	-104.44443	937.13617	1055.31812	-117.07608	872.98737	1032.43469	-38.00407	885.71204	915.09174	-129.06419	957.05090	820.68494	-110.62791	885.99988	813.13885	-127.10323	971.79688	742.95465	-131.91805
2104	8.41200	897.34650	1421.76074	135.67015	969.61896	1343.97839	305.34506	936.29169	1364.67358	-63.84572	1026.13501	1294.19263	109.55894	973.09064	1138.54565	353.67239	988.60626	1089.28992	358.37680	968.24811	1027.35352	272.16391	1089.95508	1070.73450	302.40054	1144.43359	1163.93616	306.66776	1140.37573	1139.21399	235.68260	1222.42493	1183.21082	307.99692	930.15802	1141.35095	-104.43209	937.09180	1055.35510	-117.09100	872.97430	1032.44763	-37.98415	885.69464	915.12421	-129.08060	957.06671	820.72577	-110.68050	886.01013	813.16760	-127.13049	971.82037	743.00952	-131.98555
2105	8.41600	897.35999	1421.74719	135.76526	969.67053	1343.94031	305.37692	936.24182	1364.70789	-63.78694	1026.14832	1294.18762	109.57405	973.45831	1138.55896	353.61014	988.92432	1089.37244	358.27130	968.78723	1027.40198	271.88647	1090.15320	1071.58875	302.04605	1144.31287	1164.76843	306.20782	1139.94617	1140.55310	235.38034	1221.83423	1184.97852	307.67578	930.11188	1141.39331	-104.42216	937.04108	1055.40186	-117.11066	872.96185	1032.46790	-37.96652	885.67603	915.15607	-129.08707	957.07788	820.77051	-110.73637	886.01624	813.20374	-127.15166	971.83929	743.06616	-132.05670
